<svg xmlns="http://www.w3.org/2000/svg" width="29.3" height="25.02" viewBox="0 0 29.3 25.02">
  <g id="Group_2" data-name="Group 2" transform="translate(-1489.35 -38.474)">
    <path id="Shape" d="M16.264,7.079C16.264,4.268,12,.019,8.8,0A9.209,9.209,0,0,0,.026,6.54a.61.61,0,0,0,.585.785C10.507,7.325,16.222,7.122,16.264,7.079Z" transform="translate(1489.35 56.169)" fill="#404040"/>
    <circle id="Oval" cx="5.799" cy="5.799" r="5.799" transform="translate(1492.097 43.35)" fill="#404040"/>
    <path id="Shape-2" data-name="Shape" d="M10.377,16.176H1.832A1.833,1.833,0,0,1,0,14.345V7.63A1.842,1.842,0,0,1,1.57,5.817a.305.305,0,0,0,.262-.3V4.273a4.273,4.273,0,1,1,8.545,0V5.516a.305.305,0,0,0,.262.3,1.842,1.842,0,0,1,1.57,1.813v6.716A1.833,1.833,0,0,1,10.377,16.176ZM6.1,10.377A1.221,1.221,0,1,0,7.325,11.6,1.223,1.223,0,0,0,6.1,10.377Zm0-7.935A1.834,1.834,0,0,0,4.273,4.273V5.494a.306.306,0,0,0,.305.305H7.63a.306.306,0,0,0,.305-.305V4.273A1.833,1.833,0,0,0,6.1,2.441Z" transform="translate(1506.442 38.474)" fill="#404040"/>
  </g>
</svg>
